<svg width="26" height="23" viewBox="0 0 26 23" fill="none" xmlns="http://www.w3.org/2000/svg">
<path d="M18.2513 4.05147L22.1662 7.9664C22.3312 8.13133 22.3312 8.40043 22.1662 8.56536L12.6871 18.0445L8.65929 18.4916C8.12109 18.5523 7.66536 18.0966 7.72613 17.5584L8.17318 13.5306L17.6523 4.05147C17.8173 3.88654 18.0864 3.88654 18.2513 4.05147ZM25.2826 3.05755L23.1645 0.939494C22.5048 0.279772 21.4327 0.279772 20.7687 0.939494L19.2322 2.47595C19.0673 2.64088 19.0673 2.90998 19.2322 3.07491L23.1471 6.98984C23.3121 7.15477 23.5812 7.15477 23.7461 6.98984L25.2826 5.45338C25.9423 4.78932 25.9423 3.71727 25.2826 3.05755ZM17.444 15.4664V19.8848H3.55512V5.99592H13.5291C13.668 5.99592 13.7982 5.93949 13.898 5.84401L15.6341 4.1079C15.964 3.77804 15.7296 3.21814 15.2652 3.21814H2.86068C1.7105 3.21814 0.777344 4.1513 0.777344 5.30147V20.5792C0.777344 21.7294 1.7105 22.6626 2.86068 22.6626H18.1385C19.2886 22.6626 20.2218 21.7294 20.2218 20.5792V13.7303C20.2218 13.2659 19.6619 13.0358 19.332 13.3614L17.5959 15.0975C17.5004 15.1973 17.444 15.3275 17.444 15.4664Z" fill="#F3F8FF"/>
</svg>
