<svg width="235" height="302" viewBox="0 0 235 302" fill="none" xmlns="http://www.w3.org/2000/svg">
<g clip-path="url(#clip0_189_5872)">
<path d="M174.205 215.026L78.7638 211.163C60.4224 210.421 42.9779 204.885 39.7817 198.793C36.5854 192.701 48.8523 188.367 67.1937 189.109L170.935 193.308C182.388 193.771 193.303 197.235 195.298 201.039C197.294 204.844 189.619 207.555 178.166 207.092L91.0236 203.565C86.459 203.38 82.0735 201.989 81.278 200.472C80.4826 198.956 83.5664 197.867 88.131 198.051L166.974 201.242L164.805 197.107L85.9617 193.916C74.5087 193.453 66.8333 196.164 68.8291 199.969C70.825 203.773 81.7399 207.237 93.1929 207.7L180.335 211.227C198.677 211.969 210.944 207.636 207.747 201.543C204.551 195.451 187.107 189.915 168.765 189.173L65.0244 184.974C39.7946 183.953 22.9361 189.909 27.3328 198.289C31.7294 206.67 55.7034 214.278 80.9332 215.299L176.375 219.161L174.205 215.026Z" fill="#F7AC25"/>
</g>
<g clip-path="url(#clip1_189_5872)">
<path d="M144 125.333H143.5V125.833V200.833H94.5V125.833V125.333H94H61.5975L119 38.6556L176.402 125.333H144Z" fill="#4B93E7" stroke="#F7AC25"/>
</g>
<defs>
<clipPath id="clip0_189_5872">
<rect width="74.7142" height="199.346" fill="white" transform="matrix(0.464572 0.885535 -0.999182 -0.0404359 200.138 171.555)"/>
</clipPath>
<clipPath id="clip1_189_5872">
<rect width="200" height="302" fill="white" transform="translate(19)"/>
</clipPath>
</defs>
</svg>
